# xmcd CD database file
#
# Track frame offsets:
#	150
#	17073
#	34371
#	53094
#	68292
#	82365
#	95613
#	115461
#	133659
#	151107
#	171930
#	192603
#
# Disc length: 2847 seconds
#
# Revision: 1
# Processed by: cddbd v1.5.2PL0 Copyright (c) Steve Scherf et al.
# Submitted via: CDex 1.70beta2
#
DISCID=a50b1d0c
DTITLE=Tim McGraw - Southern Voice
DYEAR=2009
DGENRE=Country
TTITLE0=Still
TTITLE1=Ghost Town Train
TTITLE2=Good Girls
TTITLE3=I Didn't Know It At The Time
TTITLE4=It's A Business Doing Pleasure With You
TTITLE5=If I Died Today
TTITLE6=Mr. Whoever You Are
TTITLE7=Southern Voice
TTITLE8=You Had To Be There
TTITLE9=I'm Only Jesus
TTITLE10=Forever Seventeen
TTITLE11=Love You Goodbye
EXTD=YEAR: 2009
EXTT0=
EXTT1=
EXTT2=
EXTT3=
EXTT4=
EXTT5=
EXTT6=
EXTT7=
EXTT8=
EXTT9=
EXTT10=
EXTT11=
PLAYORDER=
